<svg version="1" xmlns="http://www.w3.org/2000/svg" width="1333.333" height="1333.333"
     viewBox="0 0 1000.000000 1000.000000">
    <path d="M0 500v500h1000V0H0v500zm241.8-262.3l.2 21.3h-13.3c-7.4 0-13.6.2-13.8.5-.3.3 5.3 52 6 55.2.1.2 6.9.3 15.1.3h15v-99h48l-.2 130.2-.3 130.3-23.7.3-23.8.2V363h-25l.6 4.2c2.3 17.3 12 105.5 11.7 106-.2.5-10.3.8-22.3.8h-21.8l-.6-3.8c-3.9-25.1-15.6-137.3-15.6-149.1 0-6-.9-.1-3 18.4-1.6 15.3-18.7 119.9-21.5 132.2l-.5 2.3h-24c-13.1 0-24.1-.3-24.3-.8-.3-.4 8.7-48 19.9-105.7 11.2-57.8 20.4-105.8 20.4-106.8 0-1.6-1.5-1.7-18.5-1.7H108v-20.8c0-11.5.3-21.2.7-21.5.3-.4 30.4-.6 66.7-.5l66.1.3.3 21.2zm119 108.5l-.3 130.3-23.7.3-23.8.2V216h48l-.2 130.2zM610 218.3c0 4.1-19.9 171.8-20.5 172.8-.4.5-11.5.9-26.1.9-23.9 0-25.4-.1-25.4-1.8 0-1 3.2-30.1 7-64.7 3.9-34.6 7-63.7 7-64.7 0-1.7-3.2-1.8-80-1.8h-80v-43h218v2.3zM505 367.5V433h123l-.2 21.7-.3 21.8-125.7.3-125.8.2v-44h72V302h57v65.5zm188.7 69.7c-.3 1.3-1.9 9.7-3.6 18.8-1.7 9.1-3.4 17.5-3.6 18.7-.5 2.3-.6 2.3-21.6 2.3h-21.1l.5-2.3c.3-1.2 1.9-9.6 3.6-18.7 1.7-9.1 3.4-17.5 3.6-18.8.5-2.2.6-2.2 21.6-2.2h21.1l-.5 2.2zM488 522.1c19.1 2.3 32 7.7 41.6 17.3 11.8 11.8 14.1 20.2 12.4 44.4-5.4 76.7-11.9 139-16.5 156.7-3.9 14.9-14.5 27.6-28.7 34.3-4.5 2.2-11.7 4.8-15.8 5.7-15.4 3.5-43 2.9-58.8-1.1-15.5-4-28.7-13.5-34.2-24.8-4.3-8.8-5-16.2-3.4-35 .8-8.8 2.8-32 4.4-51.5 5.6-65.8 9.6-97.2 13.6-107.9 6.6-17.5 22-31 40.9-35.7 13.3-3.3 30.1-4.2 44.5-2.4zm-231 74.4V670h-89v67h101l-.2 21.7-.3 21.8h-151l-.3-76.7-.2-76.8 44.2-.2 44.3-.3.3-30.3.2-30.2h-88v-43h139v73.5zm86-24.5v49h35v44h-35v119l-25.2-.2-25.3-.3-.3-130.3L292 523h51v49zm280 81.5V784l-25.2-.2-25.3-.3-.3-130.3L572 523h51v130.5zm254-109V566H662v-43h215v21.5zm-127.5 40.2c-.3 2.1-1.6 17.3-3 33.8-1.4 16.5-2.7 31.5-2.9 33.2l-.5 3.3H794v-2.5c0-1.4 1.4-17.6 3-36.2 1.7-18.5 3-34 3-34.5 0-.4 11-.8 24.5-.8H849v3.4c0 3.4-4.4 54.8-5.6 65.3l-.5 5.3H877l-.2 21.7-.3 21.8h-214l-.3-21.8-.2-21.7H693.7l.6-5.3c.3-2.8 1.8-19.5 3.3-37l2.8-31.7H750l-.5 3.7zm146 177.3v21.5l-125.7.3-125.8.2v-44l125.8.2 125.7.3V762z"/>
    <path d="M462.5 566.4c-6.7 2.9-11.5 10.2-13.9 20.8-2.7 11.5-9.1 69-13.1 117.5-1.9 22.1-1.4 25.8 4 30.9 3.8 3.6 7 4.4 16.4 4.4 11-.1 17.7-4.6 21-14.5 1.3-3.8 8.1-57.5 11.7-92 1.5-14.6 2.7-32.6 2.8-41.1.1-14.7 0-15.1-2.6-19.1-3.6-5.4-9.6-8.3-17.4-8.3-3.2.1-7.2.7-8.9 1.4z"/>
</svg>